<svg xmlns="http://www.w3.org/2000/svg" width="97.294" height="16.554" viewBox="0 0 97.294 16.554">
  <g id="Group-21" transform="translate(0 -0.445)">
    <path id="Fill-2" d="M13.052,10.507l0,.12A19.881,19.881,0,0,0,17.2,11.808c.436.07.92.129,1.4.177v-.33c-.626-.059-1.259-.132-1.776-.2a27.991,27.991,0,0,1-3.772-.944" fill="#009140" fill-rule="evenodd"/>
    <path id="Fill-4" d="M16.247,10.884l0,.1a14.1,14.1,0,0,0,2.356.463v-.26c-.852-.07-1.828-.22-2.354-.307" fill="#009140" fill-rule="evenodd"/>
    <path id="Fill-6" d="M13.735,11.384v.1a17.5,17.5,0,0,0,2.69.751c.335.069,1.061.18,1.661.268v.112C12.449,12.4,9.342,10.326,7.87,8.872V5.6A10.822,10.822,0,0,1,0,10.9V17H18.6V12.163c-.753-.049-1.52-.119-2.073-.2-.961-.143-2.083-.39-2.792-.577" fill="#009140" fill-rule="evenodd"/>
    <path id="Fill-8" d="M7.715,2.667l.155,0V5.365C9.251,7.736,13,9.6,14.5,10.094a20.306,20.306,0,0,0,4.1.875V.445H0V9.377c3.328-.86,6.7-4.48,7.715-6.71" fill="#d9261c" fill-rule="evenodd"/>
    <path id="Fill-11" d="M31.843,13.969V12.09c-.017-.12.051-.188.187-.188h6.686c.154,0,.222.068.222.188v1.88ZM26.91,7.541v8.646h1.453V4.411A27.519,27.519,0,0,0,29.286.839L27.85.617a16.96,16.96,0,0,1-2.873,7.147l1.386.6c.188-.256.359-.547.547-.821Zm3.884-5.265h9.034V.89H30.794ZM29.62,4.582H41.058V3.129H29.62Zm1.174,2.308h9.034V5.505H30.794Zm0,2.463h9.034V7.969H30.794Zm1.049,6h7.1v.713h1.453V10.79c0-.171-.1-.273-.307-.273H30.612c-.154,0-.24.085-.223.222v5.329h1.454Z" fill="#009140" fill-rule="evenodd"/>
    <path id="Fill-13" d="M9.671,11.457H5.464V12.5a23.723,23.723,0,0,0,2.395-.444l.273,1.3c-.565.137-1.437.308-2.668.479v.975a1.477,1.477,0,0,1-.7,1.334c-.5.341-1.5.341-2.975-.018V14.757c1.18.291,1.932.342,2.206.137a.5.5,0,0,0,.154-.428V14c-1.316.137-2.428.206-3.334.257L.592,12.944c1.026-.05,2.205-.136,3.556-.273V11.457H.712V10.141H4.148V9.388c-1.077.086-2,.137-2.735.153l-.189-1.23a33.535,33.535,0,0,0,6.19-.6L7.6,8.943a18.672,18.672,0,0,1-2.138.325v.873h3.8c-.222-.753-.41-1.608-.6-2.549H.506V6.276H7.5V5.455H1.977v-1.2H7.5V3.387H1.053V2.052H4.9a7.137,7.137,0,0,0-.684-.718L5.208.446A8.969,8.969,0,0,1,6.473,1.865l.138.187H9.944A11.564,11.564,0,0,0,11.3.463l1.094.871a8.791,8.791,0,0,1-.547.718H15.3V3.387H8.936v.871h5.488v1.2H8.936v.821H15.9V7.592H10.081a24.851,24.851,0,0,0,.6,2.549h4.942v1.316H11.158a7.707,7.707,0,0,0,.957,1.556c.479-.308,1.077-.77,1.8-1.334l.822,1.093A19.613,19.613,0,0,1,13,14.021a6.207,6.207,0,0,0,.548.461c.376.257.65.361.855.291a.35.35,0,0,0,.256-.273,5,5,0,0,0,.154-1.471l1.317.445c-.2,1.727-.6,2.65-1.111,2.855a2.076,2.076,0,0,1-1.642-.308,7.789,7.789,0,0,1-1.692-1.264,16.845,16.845,0,0,1-4.925,1.435l-.376-1.349A15.416,15.416,0,0,0,10.833,13.7a10.274,10.274,0,0,1-1.162-2.239m2.582-3.693a21.53,21.53,0,0,1,2.325,1.128L13.91,10c-.29-.153-1.042-.529-2.239-1.06" transform="translate(44)" fill="#009140" fill-rule="evenodd"/>
    <path id="Fill-16" d="M76.634,4.908c.086,0,.138.034.138.119v.907a.126.126,0,0,1-.138.136H65.794V4.908Zm-6.5,7.386h6.154a.186.186,0,0,1,.189.12A3.244,3.244,0,0,1,76.5,13.85a.861.861,0,0,1-.342.632c-.8.428-2.257.325-4.292-.342l-.017,1.693a9.369,9.369,0,0,0,4.445.325,2.323,2.323,0,0,0,1.113-.6c.392-.409.6-1.692.6-3.864,0-.392-.085-.648-.256-.734a.416.416,0,0,0-.291-.069l-6.975.018c.05-.377.1-.736.119-1.044h7.813V8.533H72.343V7.387h5.421a.4.4,0,0,0,.461-.445V4.036a.4.4,0,0,0-.461-.445H65.794V2.942c-.016-.171.069-.239.239-.239a81.178,81.178,0,0,0,11.388-.616L76.943.548a69.3,69.3,0,0,1-12.208.667c-.274,0-.411.171-.394.564V8.994a17.81,17.81,0,0,1-1.2,6.275l1.418.786a21.209,21.209,0,0,0,1.231-7.061V7.387h5.1V8.533H66.376V9.866h2.787c-.12,2.224-1.35,4.087-3.693,5.506l1.2,1.009a10.893,10.893,0,0,0,3.351-3.813,1.306,1.306,0,0,1,.12-.274Z" fill="#009140" fill-rule="evenodd"/>
    <path id="Fill-18" d="M11.866,8.293c.324.24.7.564,1.077.906l-6.036.257L8.156,7.489h4.428ZM8.771,14.449H2.992v1.384H16.243V14.449H10.224V13.171h4.618V11.855H10.224v-1.2l3.984-.189c.359.36.735.77,1.129,1.214l.957-.94a26.4,26.4,0,0,0-3.3-3.249h3.044V6.105H3.35V5.044H15.182a.509.509,0,0,0,.582-.581V1.471c0-.359-.17-.547-.564-.547H2.444a.488.488,0,0,0-.546.547V7.712A19.175,19.175,0,0,1,.461,15.44l1.437.649a11.189,11.189,0,0,0,.889-2.94A21.26,21.26,0,0,0,3.35,8.258V7.489H6.429c-.445.719-.923,1.4-1.419,2.052l-1.183.081.054,1.338,4.89-.24v1.135H4.137v1.316H8.771ZM3.35,2.616a.212.212,0,0,1,.223-.239H14.089a.211.211,0,0,1,.221.239v.753a.206.206,0,0,1-.221.222H3.35Z" transform="translate(81)" fill="#009140" fill-rule="evenodd"/>
  </g>
</svg>
